<?xml version="1.0" standalone="no"?><!DOCTYPE svg PUBLIC "-//W3C//DTD SVG 1.1//EN" "http://www.w3.org/Graphics/SVG/1.1/DTD/svg11.dtd"><svg class="icon" width="200px" height="200.00px" viewBox="0 0 1024 1024" version="1.1" xmlns="http://www.w3.org/2000/svg"><path d="M24.774194 951.741935l677.16129 0L701.935484 64 24.774194 64 24.774194 951.741935zM109.419355 148.645161l507.870968 0 0 697.806452L109.419355 846.451613 109.419355 148.645161z"  /><path d="M173.419355 233.290323l379.870968 0 0 84.645161-379.870968 0 0-84.645161Z"  /><path d="M173.419355 381.935484l379.870968 0 0 84.645161-379.870968 0 0-84.645161Z"  /><path d="M173.419355 528.516129l379.870968 0 0 84.645161-379.870968 0 0-84.645161Z"  /><path d="M173.419355 677.16129l379.870968 0 0 84.645161-379.870968 0 0-84.645161Z"  /><path d="M829.935484 233.290323l169.290323 0 0 592.516129-169.290323 0 0-592.516129Z"  /><path d="M973.419355 24.774194c-17.203613-16.516129-37.16129-24.774194-59.870968-24.774194S871.225806 8.258065 854.709677 24.774194s-24.774194 36.473806-24.774194 59.870968l0 84.645161 169.290323 0L999.225806 84.645161C999.225806 61.248 990.622968 41.290323 973.419355 24.774194z"  /><path d="M912.516129 1024 999.225806 887.741935 827.870968 887.741935Z"  /></svg>