<?xml version="1.0" standalone="no"?><!DOCTYPE svg PUBLIC "-//W3C//DTD SVG 1.1//EN" "http://www.w3.org/Graphics/SVG/1.1/DTD/svg11.dtd"><svg class="icon" width="200px" height="186.52px" viewBox="0 0 1098 1024" version="1.1" xmlns="http://www.w3.org/2000/svg"><path d="M338.848 512q-92.576 2.848-151.424 73.152l-76.576 0q-46.848 0-78.848-23.136t-32-67.712q0-201.728 70.848-201.728 3.424 0 24.864 12t55.712 24.288 68 12.288q38.272 0 76-13.152-2.848 21.152-2.848 37.728 0 79.424 46.272 146.272zM950.848 876q0 68.576-41.728 108.288t-110.848 39.712l-499.424 0q-69.152 0-110.848-39.712t-41.728-108.288q0-30.272 2.016-59.136t8-62.272 15.136-62.016 24.576-55.712 35.424-46.272 48.864-30.56 63.712-11.424q5.728 0 24.576 12.288t41.728 27.424 61.152 27.424 77.152 12.288 77.152-12.288 61.152-27.424 41.728-27.424 24.576-12.288q34.848 0 63.712 11.424t48.864 30.56 35.424 46.272 24.576 55.712 15.136 62.016 8 62.272 2.016 59.136zM365.728 146.272q0 60.576-42.848 103.424t-103.424 42.848-103.424-42.848-42.848-103.424 42.848-103.424 103.424-42.848 103.424 42.848 42.848 103.424zM768 365.728q0 90.848-64.288 155.136t-155.136 64.288-155.136-64.288-64.288-155.136 64.288-155.136 155.136-64.288 155.136 64.288 64.288 155.136zM1097.152 494.272q0 44.576-32 67.712t-78.848 23.136l-76.576 0q-58.848-70.272-151.424-73.152 46.272-66.848 46.272-146.272 0-16.576-2.848-37.728 37.728 13.152 76 13.152 33.728 0 68-12.288t55.712-24.288 24.864-12q70.848 0 70.848 201.728zM1024 146.272q0 60.576-42.848 103.424t-103.424 42.848-103.424-42.848-42.848-103.424 42.848-103.424 103.424-42.848 103.424 42.848 42.848 103.424z" /></svg>